<svg width="17" height="16" viewBox="0 0 17 16" fill="none" xmlns="http://www.w3.org/2000/svg">
<path d="M6.40488 1.21905C6.93298 -0.40628 9.23239 -0.40628 9.76049 1.21905L10.4591 3.36928C10.6953 4.09615 11.3727 4.58827 12.1369 4.58827H14.3978C16.1068 4.58827 16.8174 6.77514 15.4348 7.77965L13.6057 9.10856C12.9874 9.55779 12.7286 10.3541 12.9648 11.0809L13.6635 13.2312C14.1916 14.8565 12.3313 16.2081 10.9487 15.2035L9.11962 13.8746C8.50131 13.4254 7.66405 13.4254 7.04574 13.8746L5.21665 15.2036C3.83406 16.2081 1.9738 14.8565 2.5019 13.2312L3.20056 11.0809C3.43673 10.3541 3.178 9.55779 2.55969 9.10856L0.730597 7.77965C-0.65199 6.77514 0.0585651 4.58827 1.76754 4.58827H4.02842C4.7927 4.58827 5.47005 4.09615 5.70623 3.36928L6.40488 1.21905Z" fill="white"/>
</svg>
